<?xml version="1.0"?>
<svg xmlns="http://www.w3.org/2000/svg" xmlns:xlink="http://www.w3.org/1999/xlink" xmlns:svgjs="http://svgjs.com/svgjs" version="1.1" width="512" height="512" x="0" y="0" viewBox="0 0 512 512" style="enable-background:new 0 0 512 512" xml:space="preserve" class=""><g>
<polygon xmlns="http://www.w3.org/2000/svg" style="" points="365,389 402.596,512 512,512 512,118.964 " fill="#402b1f" data-original="#7c4221" class=""/>
<polygon xmlns="http://www.w3.org/2000/svg" style="" points="402.596,415.202 512,118.964 279,260.331 " fill="#7e6c5b" data-original="#af7234" class=""/>
<polygon xmlns="http://www.w3.org/2000/svg" style="" points="305.928,260.331 512,118.964 456.773,36.105 371.79,0 217.667,110.333 256,260.331 " fill="#402b1f" data-original="#7c4221" class=""/>
<polygon xmlns="http://www.w3.org/2000/svg" style="" points="256,0 235.984,47.667 256,113.299 371.79,0 " fill="#7e6c5b" data-original="#af7234" class=""/>
<polygon xmlns="http://www.w3.org/2000/svg" style="" points="256,260.331 235.984,381.667 256,512 402.596,512 402.596,415.202 305.928,260.331 " fill="#4a3e3a" data-original="#56352a" class=""/>
<polygon xmlns="http://www.w3.org/2000/svg" style="" points="184.826,0 193.406,100.333 256,113.299 256,0 " fill="#bbae97" data-original="#e4a02c" class=""/>
<polygon xmlns="http://www.w3.org/2000/svg" style="" points="256,260.331 256,113.299 184.826,0 33.981,157.961 130.812,409 " fill="#7e6c5b" data-original="#af7234" class=""/>
<polygon xmlns="http://www.w3.org/2000/svg" style="" points="256,260.331 130.812,352.669 110.796,428.333 130.812,512 256,512 " fill="#402b1f" data-original="#7c4221" class=""/>
<polygon xmlns="http://www.w3.org/2000/svg" style="" points="33.981,157.961 0,256 0,512 130.812,512 130.812,352.669 " fill="#bbae97" data-original="#e4a02c" class=""/>
<g xmlns="http://www.w3.org/2000/svg">
</g>
<g xmlns="http://www.w3.org/2000/svg">
</g>
<g xmlns="http://www.w3.org/2000/svg">
</g>
<g xmlns="http://www.w3.org/2000/svg">
</g>
<g xmlns="http://www.w3.org/2000/svg">
</g>
<g xmlns="http://www.w3.org/2000/svg">
</g>
<g xmlns="http://www.w3.org/2000/svg">
</g>
<g xmlns="http://www.w3.org/2000/svg">
</g>
<g xmlns="http://www.w3.org/2000/svg">
</g>
<g xmlns="http://www.w3.org/2000/svg">
</g>
<g xmlns="http://www.w3.org/2000/svg">
</g>
<g xmlns="http://www.w3.org/2000/svg">
</g>
<g xmlns="http://www.w3.org/2000/svg">
</g>
<g xmlns="http://www.w3.org/2000/svg">
</g>
<g xmlns="http://www.w3.org/2000/svg">
</g>
</g></svg>
